<?xml version="1.0" encoding="UTF-8"?>
<svg id="Layer_1" data-name="Layer 1" xmlns="http://www.w3.org/2000/svg" width="2165.8" height="459.7" viewBox="0 0 2165.8 459.7">
  <defs>
    <style>
      .cls-1 {
        fill: #fff;
      }
    </style>
  </defs>
  <polygon class="cls-1" points="140.2 397 184.1 335.9 136.2 269.2 0 459.8 429.6 459.8 262.7 226 329.3 133.1 561.1 459.8 655.3 459.8 326.2 2.1 213.8 158.4 155.8 77.5 107.3 145.2 287.7 397 140.2 397"/>
  <g>
    <path class="cls-1" d="M709.5,204.1v-43.2h152c15.5,0,24.4-8,24.4-20.8s-8.9-21.3-24.4-21.3h-91.1c-39.6,0-64-23.8-64-57.9s22.7-58.2,64.5-58.2h145.7v43.2h-145.7c-12.2,0-19.7,6.9-19.7,19.4s7.8,19.4,19.7,19.4h90.6c42.4,0,65.1,18.8,65.1,59s-21.3,60.4-65.1,60.4h-152Z"/>
    <path class="cls-1" d="M1129.9,2.8h42.1v112.4c0,62.3-31.3,91.7-110.5,91.7s-110.5-29.4-110.5-91.7V2.8h44.6v112.4c0,35.7,15.5,49.3,67.3,49.3s67-13.6,67-49.3V2.8Z"/>
    <path class="cls-1" d="M1200.8,204.1V2.8h148.2c40.7,0,67.9,17.7,67.9,52.6s-11.9,36.3-23.3,41.5c15.2,6.4,27.1,22.2,27.1,43.2,0,39.9-26.9,64-66.5,64h-153.4ZM1269,118.8v-34.1h80.9c15.8,0,23-6.4,23-19.4s-11.1-19.7-29.6-19.7h-99.1v115.5h102.5c18.3,0,30.2-6.6,30.2-21.3s-8.3-21-23.8-21h-83.9Z"/>
    <path class="cls-1" d="M1637.6,204.1l-28.2-47.6h-85l19.7-33.5h45.4l-36.8-62-84.5,143.2h-49l114.4-190.3c5-8.3,11.4-13.8,20.8-13.8s15.8,5.5,20.8,13.8l114.4,190.3h-51.8Z"/>
    <path class="cls-1" d="M1913.1,204.1l-28.2-47.6h-85l19.7-33.5h45.4l-36.8-62-84.5,143.2h-49l114.4-190.3c5-8.3,11.4-13.8,20.8-13.8s15.8,5.5,20.8,13.8l114.4,190.3h-51.8Z"/>
    <path class="cls-1" d="M2049.9,204.1c-57.3,0-99.4-44.3-99.4-102.7s42.1-98.6,99.4-98.6h111.1v43.2h-111.1c-32.4,0-56.2,24.1-56.2,57.6s23.5,57.3,56.2,57.3h111.1v43.2h-111.1Z"/>
    <path class="cls-1" d="M803.1,460.5c-57.3,0-99.4-44.3-99.4-102.7s42.1-98.6,99.4-98.6h111.1v43.2h-111.1c-32.4,0-56.2,24.1-56.2,57.6s23.5,57.3,56.2,57.3h80.3v-42.1h-85v-34.1h128.2v119.4h-123.5Z"/>
    <path class="cls-1" d="M956.3,460.5v-201.3h43.2v158.1h130.2v43.2h-173.4Z"/>
    <path class="cls-1" d="M1245.7,460.5c-57.3,0-99.4-44.3-99.4-102.7s42.1-98.6,99.4-98.6h49.9c59.3,0,100.3,40.2,100.3,98.6s-42.1,102.7-100.3,102.7h-49.9ZM1295.5,417.3c33.5,0,57.1-24.1,57.1-57.3s-23.5-57.6-57.1-57.6h-49.9c-32.4,0-56.2,24.1-56.2,57.6s23.5,57.3,56.2,57.3h49.9Z"/>
    <path class="cls-1" d="M1421.3,460.5v-201.3h148.2c40.7,0,67.9,17.7,67.9,52.6s-11.9,36.3-23.3,41.5c15.2,6.4,27.1,22.2,27.1,43.2,0,39.9-26.9,64-66.5,64h-153.4ZM1489.4,375.2v-34.1h80.9c15.8,0,23-6.4,23-19.4s-11.1-19.7-29.6-19.7h-99.1v115.5h102.5c18.3,0,30.2-6.6,30.2-21.3s-8.3-21-23.8-21h-83.9Z"/>
    <path class="cls-1" d="M1858,460.5l-28.2-47.6h-85l19.7-33.5h45.4l-36.8-62-84.5,143.2h-49l114.4-190.3c5-8.3,11.4-13.8,20.8-13.8s15.8,5.5,20.8,13.8l114.4,190.3h-51.8Z"/>
    <path class="cls-1" d="M1928.6,460.5v-201.3h43.2v158.1h130.2v43.2h-173.4Z"/>
  </g>
</svg>